# xmcd CD database file
#
# Track frame offsets:
#	150
#	21541
#	55462
#	88374
#
# Disc length: 1509 seconds
#
# Revision: 0
# Processed by: cddbd v1.5.1PL0 Copyright (c) Steve Scherf et al.
# Submitted via: CDex 1.51
#
DISCID=3705e304
DTITLE=Enigma - Eyes Of Truth
DYEAR=1994
DGENRE=New Age
TTITLE0=Eyes Of Truth (Radio Edit)
TTITLE1=Eyes Of Truth (Album Version)
TTITLE2=Eyes Of Truth (The Gotterdammerung Mix (The Twilight Of The Gods)
TTITLE3=Eyes Of Truth (Dub Version)
EXTD=YEAR: 1994
EXTT0=
EXTT1=
EXTT2=
EXTT3=
PLAYORDER=
